<mxfile host="app.diagrams.net" modified="2023-10-24T08:25:00.445Z" agent="Mozilla/5.0 (X11; Linux x86_64) AppleWebKit/537.36 (KHTML, like Gecko) Chrome/117.0.0.0 Safari/537.36" version="22.0.6" etag="CZLrGD4U8AqqHUHIbDsL" type="github">
  <diagram name="Page-1" id="z3dqhg2BNU3K8tf5TJe2">
    <mxGraphModel>
      <root>
        <mxCell id="0" />
        <mxCell id="1" parent="0" />
      </root>
    </mxGraphModel>
  </diagram>
</mxfile>
